<svg width="24" height="24" viewBox="0 0 24 24" fill="none" xmlns="http://www.w3.org/2000/svg">
<path d="M19.6089 9.49186H16.5121L14.149 4.84465C14.0735 4.69648 13.9413 4.58393 13.7816 4.53176C13.6219 4.47959 13.4477 4.49207 13.2973 4.56645C13.1469 4.64084 13.0326 4.77104 12.9797 4.92841C12.9267 5.08578 12.9394 5.25743 13.0149 5.4056L15.0979 9.5101H8.89974L10.9828 5.4056C11.0583 5.25743 11.071 5.08578 11.018 4.92841C10.965 4.77104 10.8508 4.64084 10.7004 4.56645C10.55 4.49207 10.3758 4.47959 10.2161 4.53176C10.0563 4.58393 9.92418 4.69648 9.84868 4.84465L7.48096 9.49186H4.38417C4.30089 9.49186 4.21842 9.50802 4.14148 9.53942C4.06454 9.57081 3.99463 9.61684 3.93574 9.67485C3.87686 9.73287 3.83014 9.80175 3.79827 9.87755C3.7664 9.95336 3.75 10.0346 3.75 10.1167V12.625C3.75 12.707 3.7664 12.7883 3.79827 12.8641C3.83014 12.9399 3.87686 13.0087 3.93574 13.0668C3.99463 13.1248 4.06454 13.1708 4.14148 13.2022C4.21842 13.2336 4.30089 13.2498 4.38417 13.2498H4.84707L6.31214 19.028C6.3467 19.163 6.42605 19.2828 6.53759 19.3683C6.64913 19.4538 6.78646 19.5002 6.92779 19.5H17.0722C17.2135 19.5002 17.3509 19.4538 17.4624 19.3683C17.574 19.2828 17.6533 19.163 17.6879 19.028L19.1529 13.2498H19.6158C19.784 13.2498 19.9453 13.1839 20.0643 13.0668C20.1832 12.9496 20.25 12.7907 20.25 12.625V10.1167C20.25 10.034 20.2334 9.95222 20.2011 9.87596C20.1688 9.79971 20.1214 9.73053 20.0618 9.67242C20.0022 9.61431 19.9314 9.56843 19.8537 9.53744C19.776 9.50644 19.6927 9.49095 19.6089 9.49186ZM5.0276 10.7414H18.984V12.0002H5.01834L5.0276 10.7414ZM16.5769 18.2504H7.41615L6.14781 13.2498H17.8452L16.5769 18.2504Z" fill="#263238"/>
<path d="M11.997 17.6257C12.1652 17.6257 12.3265 17.5598 12.4454 17.4427C12.5643 17.3255 12.6311 17.1666 12.6311 17.0009V14.5085C12.6311 14.3428 12.5643 14.1839 12.4454 14.0667C12.3265 13.9496 12.1652 13.8837 11.997 13.8837C11.8288 13.8837 11.6675 13.9496 11.5485 14.0667C11.4296 14.1839 11.3628 14.3428 11.3628 14.5085V17.0168C11.367 17.1798 11.4357 17.3346 11.5542 17.4483C11.6726 17.5621 11.8315 17.6257 11.997 17.6257V17.6257Z" fill="#263238"/>
<path d="M14.3811 17.6073C14.4319 17.619 14.4839 17.6251 14.5361 17.6256C14.6774 17.6251 14.8144 17.5782 14.9255 17.4923C15.0366 17.4063 15.1155 17.2863 15.1495 17.1513L15.7837 14.643C15.8084 14.5621 15.8161 14.477 15.8065 14.3931C15.7969 14.3091 15.7701 14.2279 15.7277 14.1544C15.6854 14.081 15.6283 14.0167 15.56 13.9656C15.4917 13.9145 15.4136 13.8775 15.3304 13.857C15.2472 13.8364 15.1607 13.8328 15.076 13.8461C14.9913 13.8595 14.9102 13.8897 14.8377 13.9348C14.7652 13.9799 14.7027 14.0391 14.6541 14.1087C14.6054 14.1783 14.5716 14.2569 14.5547 14.3397L13.9182 16.848C13.8782 17.0091 13.9044 17.1793 13.9911 17.3215C14.0778 17.4637 14.2179 17.5664 14.3811 17.6073Z" fill="#263238"/>
<path d="M8.8438 17.1513C8.87752 17.2853 8.9553 17.4044 9.065 17.4902C9.1747 17.576 9.31014 17.6236 9.45019 17.6256C9.50241 17.6252 9.55441 17.619 9.60526 17.6074C9.76842 17.5664 9.90857 17.4637 9.99525 17.3215C10.0819 17.1793 10.1081 17.0092 10.0682 16.848L9.45019 14.3489C9.43326 14.266 9.39944 14.1874 9.35079 14.1178C9.30214 14.0482 9.23967 13.9891 9.16715 13.944C9.09463 13.8988 9.01357 13.8687 8.92888 13.8553C8.84419 13.8419 8.75763 13.8456 8.67442 13.8661C8.59122 13.8867 8.51311 13.9236 8.44482 13.9747C8.37653 14.0259 8.31947 14.0901 8.2771 14.1636C8.23474 14.2371 8.20794 14.3182 8.19833 14.4022C8.18872 14.4862 8.1965 14.5712 8.2212 14.6521L8.8438 17.1513Z" fill="#263238"/>
</svg>
