<svg xmlns="http://www.w3.org/2000/svg" xmlns:xlink="http://www.w3.org/1999/xlink"><symbol id="icon-cart" viewBox="0 0 24 24"><path d="M19.609 9.492h-3.097L14.15 4.845a.643.643 0 00-.852-.278.628.628 0 00-.317.361.617.617 0 00.035.478l2.083 4.104H8.9l2.083-4.104a.617.617 0 00.035-.478.628.628 0 00-.318-.362.643.643 0 00-.851.279L7.48 9.492H4.384a.642.642 0 00-.448.183.624.624 0 00-.186.442v2.508a.617.617 0 00.186.442.635.635 0 00.448.183h.463l1.465 5.778a.624.624 0 00.226.34.64.64 0 00.39.132h10.144a.64.64 0 00.39-.132.624.624 0 00.226-.34l1.465-5.778h.463a.64.64 0 00.448-.183.62.62 0 00.186-.442v-2.508a.617.617 0 00-.188-.445.635.635 0 00-.453-.18zm-14.581 1.25h13.956V12H5.018l.01-1.259zm11.549 7.508h-9.16l-1.27-5h11.698l-1.268 5z"/><path d="M11.997 17.626a.64.64 0 00.448-.183.62.62 0 00.186-.442v-2.493a.62.62 0 00-.186-.441.64.64 0 00-.896 0 .62.62 0 00-.186.441v2.509a.62.62 0 00.191.431.639.639 0 00.443.178zM14.381 17.607a.64.64 0 00.544-.115.625.625 0 00.225-.34l.634-2.509a.616.616 0 00-.224-.677.638.638 0 00-1.005.374l-.637 2.508a.621.621 0 00.073.474.638.638 0 00.39.285zM8.844 17.151a.624.624 0 00.221.34.64.64 0 00.54.116.638.638 0 00.39-.285.622.622 0 00.073-.474l-.618-2.5a.62.62 0 00-.283-.404.64.64 0 00-.969.458.616.616 0 00.023.25l.623 2.5z"/></symbol><symbol id="icon-fb" viewBox="0 0 24 24"><path d="M22 12c0-5.52-4.48-10-10-10S2 6.48 2 12c0 4.84 3.44 8.87 8 9.8V15H8v-3h2V9.5C10 7.57 11.57 6 13.5 6H16v3h-2c-.55 0-1 .45-1 1v2h3v3h-3v6.95c5.05-.5 9-4.76 9-9.95z"/></symbol><symbol id="icon-instagram" viewBox="0 0 24 24"><path fill-rule="evenodd" clip-rule="evenodd" d="M10.825 2h2.349c1.675.004 2.06.019 2.949.06 1.064.048 1.791.217 2.427.464a4.901 4.901 0 011.772 1.153 4.902 4.902 0 011.153 1.772c.247.636.416 1.363.465 2.427.047 1.031.06 1.384.06 3.86v.527c0 2.476-.013 2.829-.06 3.86-.049 1.064-.218 1.791-.465 2.427a4.902 4.902 0 01-1.153 1.772 4.902 4.902 0 01-1.772 1.153c-.636.247-1.363.416-2.427.465-1.031.047-1.384.06-3.86.06h-.527c-2.476 0-2.829-.013-3.86-.06-1.064-.049-1.791-.218-2.427-.465a4.902 4.902 0 01-1.772-1.153 4.901 4.901 0 01-1.153-1.772c-.247-.636-.416-1.363-.465-2.427-.04-.89-.055-1.274-.059-2.95v-2.348c.004-1.675.019-2.06.06-2.949.048-1.064.217-1.791.464-2.427a4.902 4.902 0 011.153-1.772A4.902 4.902 0 015.45 2.524c.636-.247 1.363-.416 2.427-.465.89-.04 1.274-.055 2.95-.059h2.348-2.349zm1.908 1.801h-1.467c-2.007.002-2.359.015-3.308.058-.975.045-1.504.208-1.857.344-.466.182-.8.399-1.15.749-.35.35-.566.683-.748 1.15-.136.352-.3.881-.344 1.856-.043.95-.056 1.3-.058 3.308v1.467c.002 2.007.015 2.358.058 3.308.045.975.208 1.504.344 1.857.182.466.399.8.749 1.15.35.35.683.566 1.15.748.352.136.881.3 1.856.344 1.055.048 1.371.058 4.041.058 2.67 0 2.987-.01 4.042-.058.975-.045 1.504-.208 1.857-.345.466-.18.8-.398 1.15-.748.35-.35.566-.683.748-1.15.136-.352.3-.881.344-1.856.048-1.055.058-1.371.058-4.042 0-2.67-.01-2.986-.058-4.04-.045-.976-.208-1.505-.345-1.858a3.097 3.097 0 00-.748-1.15 3.098 3.098 0 00-1.15-.748c-.352-.136-.881-.3-1.856-.344-.95-.043-1.3-.056-3.308-.058zM11.999 7a5 5 0 110 10 5 5 0 010-10zm0 1.755a3.246 3.246 0 100 6.491 3.246 3.246 0 000-6.491zm5.417-3.422a1.25 1.25 0 110 2.5 1.25 1.25 0 010-2.5z"/></symbol><symbol id="icon-linkedin" viewBox="0 0 24 24"><path fill-rule="evenodd" clip-rule="evenodd" d="M20.33 2c.922 0 1.67.748 1.67 1.67v16.66A1.67 1.67 0 0120.33 22H3.67A1.67 1.67 0 012 20.33V3.67C2 2.749 2.748 2 3.67 2h16.66zm-4.811 7.5c-1.42 0-2.39.627-2.823 1.356l-.071.13V9.625H9.917v9.583h2.916v-4.642c0-1.556.573-2.545 1.95-2.545.95 0 1.349.84 1.381 2.337l.003.208v4.642h2.916v-5.293c0-2.857-.683-4.415-3.564-4.415zm-7.686 0H4.917v9.583h2.916V9.5zm-1.458-5a1.875 1.875 0 100 3.75 1.875 1.875 0 000-3.75z"/></symbol><symbol id="icon-pinterest" viewBox="0 0 20 20"><path d="M10 0C4.477 0 0 4.477 0 10s4.477 10 10 10 10-4.477 10-10S15.523 0 10 0zm1.15 13.322c-.924 0-1.794-.5-2.092-1.068 0 0-.498 1.973-.602 2.354-.371 1.346-1.462 2.693-1.547 2.803-.06.077-.19.053-.204-.049-.023-.171-.302-1.87.026-3.255l1.102-4.668s-.273-.547-.273-1.355c0-1.27.735-2.218 1.652-2.218.779 0 1.155.585 1.155 1.287 0 .783-.499 1.954-.756 3.04-.215.908.455 1.649 1.351 1.649 1.624 0 2.716-2.084 2.716-4.555 0-1.877-1.264-3.282-3.564-3.282-2.598 0-4.218 1.938-4.218 4.102 0 .746.22 1.273.566 1.68.158.187.18.263.123.478-.042.157-.135.537-.175.687-.057.217-.232.294-.429.214-1.196-.488-1.754-1.799-1.754-3.272 0-2.434 2.052-5.351 6.122-5.351 3.27 0 5.424 2.366 5.424 4.907 0 3.361-1.869 5.872-4.622 5.872z"/></symbol><symbol id="icon-tw" viewBox="0 0 24 24"><path fill-rule="evenodd" clip-rule="evenodd" d="M19.944 7.987c.013.175.013.35.013.525C19.957 13.85 15.833 20 8.294 20c-2.322 0-4.48-.663-6.294-1.813.33.038.647.05.99.05 1.916 0 3.68-.637 5.089-1.724-1.802-.038-3.313-1.2-3.833-2.8.254.037.508.062.774.062.368 0 .736-.05 1.079-.138-1.878-.375-3.287-2-3.287-3.962v-.05c.546.3 1.18.488 1.853.512a4.02 4.02 0 01-1.827-3.362c0-.75.203-1.438.558-2.038a11.71 11.71 0 008.452 4.225 4.495 4.495 0 01-.102-.924c0-2.226 1.828-4.038 4.1-4.038 1.18 0 2.245.487 2.994 1.275a8.145 8.145 0 002.602-.975 4.038 4.038 0 01-1.802 2.225A8.316 8.316 0 0022 5.9a8.74 8.74 0 01-2.056 2.087z"/></symbol> <view id="icon-cart-view-primary" viewBox="0 0 24 24"/><view id="icon-cart-view-black" viewBox="0 34 24 24"/><view id="icon-cart-view-blue" viewBox="0 68 24 24"/><view id="icon-cart-view-white" viewBox="0 102 24 24"/><view id="icon-fb-view-primary" viewBox="0 136 24 24"/><view id="icon-fb-view-black" viewBox="0 170 24 24"/><view id="icon-fb-view-blue" viewBox="0 204 24 24"/><view id="icon-fb-view-white" viewBox="0 238 24 24"/><view id="icon-instagram-view-primary" viewBox="0 272 24 24"/><view id="icon-instagram-view-black" viewBox="0 306 24 24"/><view id="icon-instagram-view-blue" viewBox="0 340 24 24"/><view id="icon-instagram-view-white" viewBox="0 374 24 24"/><view id="icon-linkedin-view-primary" viewBox="0 408 24 24"/><view id="icon-linkedin-view-black" viewBox="0 442 24 24"/><view id="icon-linkedin-view-blue" viewBox="0 476 24 24"/><view id="icon-linkedin-view-white" viewBox="0 510 24 24"/><view id="icon-pinterest-view-primary" viewBox="0 544 20 20"/><view id="icon-pinterest-view-black" viewBox="0 574 20 20"/><view id="icon-pinterest-view-blue" viewBox="0 604 20 20"/><view id="icon-pinterest-view-white" viewBox="0 634 20 20"/><view id="icon-tw-view-primary" viewBox="0 664 24 24"/><view id="icon-tw-view-black" viewBox="0 698 24 24"/><view id="icon-tw-view-blue" viewBox="0 732 24 24"/><view id="icon-tw-view-white" viewBox="0 766 24 24"/> <use xlink:href="#icon-cart" x="0" y="0" width="24" height="24" style="fill:#FFC635"/><use xlink:href="#icon-cart" x="0" y="34" width="24" height="24" style="fill:#263238"/><use xlink:href="#icon-cart" x="0" y="68" width="24" height="24" style="fill:#3570C8"/><use xlink:href="#icon-cart" x="0" y="102" width="24" height="24" style="fill:#ffffff"/><use xlink:href="#icon-fb" x="0" y="136" width="24" height="24" style="fill:#FFC635"/><use xlink:href="#icon-fb" x="0" y="170" width="24" height="24" style="fill:#263238"/><use xlink:href="#icon-fb" x="0" y="204" width="24" height="24" style="fill:#3570C8"/><use xlink:href="#icon-fb" x="0" y="238" width="24" height="24" style="fill:#ffffff"/><use xlink:href="#icon-instagram" x="0" y="272" width="24" height="24" style="fill:#FFC635"/><use xlink:href="#icon-instagram" x="0" y="306" width="24" height="24" style="fill:#263238"/><use xlink:href="#icon-instagram" x="0" y="340" width="24" height="24" style="fill:#3570C8"/><use xlink:href="#icon-instagram" x="0" y="374" width="24" height="24" style="fill:#ffffff"/><use xlink:href="#icon-linkedin" x="0" y="408" width="24" height="24" style="fill:#FFC635"/><use xlink:href="#icon-linkedin" x="0" y="442" width="24" height="24" style="fill:#263238"/><use xlink:href="#icon-linkedin" x="0" y="476" width="24" height="24" style="fill:#3570C8"/><use xlink:href="#icon-linkedin" x="0" y="510" width="24" height="24" style="fill:#ffffff"/><use xlink:href="#icon-pinterest" x="0" y="544" width="20" height="20" style="fill:#FFC635"/><use xlink:href="#icon-pinterest" x="0" y="574" width="20" height="20" style="fill:#263238"/><use xlink:href="#icon-pinterest" x="0" y="604" width="20" height="20" style="fill:#3570C8"/><use xlink:href="#icon-pinterest" x="0" y="634" width="20" height="20" style="fill:#ffffff"/><use xlink:href="#icon-tw" x="0" y="664" width="24" height="24" style="fill:#FFC635"/><use xlink:href="#icon-tw" x="0" y="698" width="24" height="24" style="fill:#263238"/><use xlink:href="#icon-tw" x="0" y="732" width="24" height="24" style="fill:#3570C8"/><use xlink:href="#icon-tw" x="0" y="766" width="24" height="24" style="fill:#ffffff"/></svg>