<svg width="132" height="43" viewBox="0 0 132 43" fill="none" xmlns="http://www.w3.org/2000/svg">
    <path d="M56.826 18V2.6H63.822C65.494 2.6 66.968 2.92267 68.244 3.56801C69.52 4.19867 70.5174 5.08601 71.236 6.23001C71.9547 7.37401 72.314 8.73067 72.314 10.3C72.314 11.8547 71.9547 13.2113 71.236 14.37C70.5174 15.514 69.52 16.4087 68.244 17.054C66.968 17.6847 65.494 18 63.822 18H56.826ZM60.39 15.074H63.646C64.6727 15.074 65.56 14.8833 66.308 14.502C67.0707 14.106 67.6574 13.5487 68.068 12.83C68.4934 12.1113 68.706 11.268 68.706 10.3C68.706 9.31734 68.4934 8.47401 68.068 7.77001C67.6574 7.05134 67.0707 6.50134 66.308 6.12001C65.56 5.72401 64.6727 5.52601 63.646 5.52601H60.39V15.074Z" fill="#263238"/>
    <path d="M74.7598 18V6.164H78.0378V9.50801L77.5758 8.54001C77.9278 7.70401 78.4925 7.07334 79.2698 6.64801C80.0471 6.20801 80.9931 5.98801 82.1078 5.98801V9.15601C81.9611 9.14134 81.8291 9.13401 81.7118 9.13401C81.5945 9.11934 81.4698 9.11201 81.3378 9.11201C80.3991 9.11201 79.6365 9.38334 79.0498 9.92601C78.4778 10.454 78.1918 11.2827 78.1918 12.412V18H74.7598Z" fill="#263238"/>
    <path d="M84.17 18V6.164H87.602V18H84.17ZM85.886 4.51401C85.2553 4.51401 84.742 4.33067 84.346 3.96401C83.95 3.59734 83.752 3.14267 83.752 2.6C83.752 2.05734 83.95 1.60267 84.346 1.23601C84.742 0.869338 85.2553 0.686005 85.886 0.686005C86.5166 0.686005 87.03 0.862005 87.426 1.21401C87.822 1.55134 88.02 1.99134 88.02 2.53401C88.02 3.10601 87.822 3.58267 87.426 3.96401C87.0446 4.33067 86.5313 4.51401 85.886 4.51401Z" fill="#263238"/>
    <path d="M93.9991 18L89.0271 6.164H92.5691L96.7051 16.35H94.9451L99.2351 6.164H102.535L97.5411 18H93.9991Z" fill="#263238"/>
    <path d="M109.487 18.176C108.138 18.176 106.95 17.912 105.923 17.384C104.911 16.856 104.127 16.1373 103.569 15.228C103.012 14.304 102.733 13.2553 102.733 12.082C102.733 10.894 103.005 9.84534 103.547 8.93601C104.105 8.01201 104.86 7.29334 105.813 6.78C106.767 6.25201 107.845 5.98801 109.047 5.98801C110.206 5.98801 111.247 6.23734 112.171 6.73601C113.11 7.22001 113.851 7.924 114.393 8.84801C114.936 9.75734 115.207 10.85 115.207 12.126C115.207 12.258 115.2 12.412 115.185 12.588C115.171 12.7493 115.156 12.9033 115.141 13.05H105.527V11.048H113.337L112.017 11.642C112.017 11.026 111.893 10.4907 111.643 10.036C111.394 9.58134 111.049 9.22934 110.609 8.98001C110.169 8.71601 109.656 8.58401 109.069 8.58401C108.483 8.58401 107.962 8.71601 107.507 8.98001C107.067 9.22934 106.723 9.58867 106.473 10.058C106.224 10.5127 106.099 11.0553 106.099 11.686V12.214C106.099 12.8593 106.239 13.4313 106.517 13.93C106.811 14.414 107.214 14.788 107.727 15.052C108.255 15.3013 108.871 15.426 109.575 15.426C110.206 15.426 110.756 15.3307 111.225 15.14C111.709 14.9493 112.149 14.6633 112.545 14.282L114.371 16.262C113.829 16.878 113.147 17.3547 112.325 17.692C111.504 18.0147 110.558 18.176 109.487 18.176Z" fill="#263238"/>
    <path d="M122.574 18.264C121.445 18.264 120.44 18.0807 119.56 17.714C118.68 17.3473 117.984 16.8487 117.47 16.218C116.957 15.5873 116.7 14.8613 116.7 14.04C116.7 13.2773 116.869 12.5953 117.206 11.994C117.544 11.378 118.079 10.806 118.812 10.278C119.546 9.73534 120.477 9.20734 121.606 8.69401C122.428 8.31267 123.073 7.97534 123.542 7.68201C124.012 7.38867 124.342 7.11001 124.532 6.84601C124.723 6.56734 124.818 6.28867 124.818 6.01001C124.818 5.62867 124.686 5.32067 124.422 5.08601C124.173 4.85134 123.799 4.734 123.3 4.734C122.772 4.734 122.362 4.866 122.068 5.13C121.775 5.394 121.628 5.73134 121.628 6.142C121.628 6.362 121.672 6.58201 121.76 6.80201C121.848 7.00734 122.017 7.24934 122.266 7.52801C122.516 7.79201 122.868 8.13667 123.322 8.56201L131.44 16.086L129.57 18.264L120.616 9.94801C120.103 9.47867 119.692 9.03867 119.384 8.62801C119.076 8.21734 118.849 7.81401 118.702 7.418C118.57 7.02201 118.504 6.61134 118.504 6.18601C118.504 5.43801 118.702 4.77801 119.098 4.20601C119.494 3.63401 120.052 3.19401 120.77 2.88601C121.489 2.56334 122.332 2.402 123.3 2.402C124.195 2.402 124.965 2.54867 125.61 2.84201C126.27 3.12067 126.784 3.52401 127.15 4.05201C127.532 4.58001 127.722 5.21067 127.722 5.94401C127.722 6.58934 127.561 7.18334 127.238 7.72601C126.916 8.25401 126.41 8.75267 125.72 9.22201C125.046 9.69134 124.158 10.168 123.058 10.652C122.31 10.9893 121.716 11.3193 121.276 11.642C120.851 11.95 120.543 12.2653 120.352 12.588C120.162 12.9107 120.066 13.27 120.066 13.666C120.066 14.0327 120.176 14.3627 120.396 14.656C120.631 14.9493 120.954 15.1767 121.364 15.338C121.775 15.4993 122.259 15.58 122.816 15.58C123.711 15.58 124.532 15.3747 125.28 14.964C126.028 14.5387 126.659 13.9153 127.172 13.094C127.7 12.258 128.074 11.246 128.294 10.058L131.044 10.916C130.736 12.412 130.186 13.71 129.394 14.81C128.602 15.91 127.627 16.7607 126.468 17.362C125.31 17.9633 124.012 18.264 122.574 18.264Z" fill="#263238"/>
    <path d="M56.494 39V26.4H61.948C63.076 26.4 64.048 26.586 64.864 26.958C65.68 27.318 66.31 27.84 66.754 28.524C67.198 29.208 67.42 30.024 67.42 30.972C67.42 31.908 67.198 32.718 66.754 33.402C66.31 34.074 65.68 34.59 64.864 34.95C64.048 35.31 63.076 35.49 61.948 35.49H58.114L59.41 34.212V39H56.494ZM64.504 39L61.354 34.428H64.468L67.654 39H64.504ZM59.41 34.536L58.114 33.168H61.786C62.686 33.168 63.358 32.976 63.802 32.592C64.246 32.196 64.468 31.656 64.468 30.972C64.468 30.276 64.246 29.736 63.802 29.352C63.358 28.968 62.686 28.776 61.786 28.776H58.114L59.41 27.39V34.536Z" fill="#263238"/>
    <path d="M74.3383 39.144C73.2343 39.144 72.2623 38.928 71.4223 38.496C70.5943 38.064 69.9523 37.476 69.4963 36.732C69.0403 35.976 68.8123 35.118 68.8123 34.158C68.8123 33.186 69.0343 32.328 69.4783 31.584C69.9343 30.828 70.5523 30.24 71.3323 29.82C72.1123 29.388 72.9943 29.172 73.9783 29.172C74.9263 29.172 75.7783 29.376 76.5343 29.784C77.3023 30.18 77.9083 30.756 78.3523 31.512C78.7963 32.256 79.0183 33.15 79.0183 34.194C79.0183 34.302 79.0124 34.428 79.0004 34.572C78.9884 34.704 78.9763 34.83 78.9643 34.95H71.0983V33.312H77.4883L76.4083 33.798C76.4083 33.294 76.3063 32.856 76.1023 32.484C75.8983 32.112 75.6163 31.824 75.2563 31.62C74.8963 31.404 74.4763 31.296 73.9963 31.296C73.5163 31.296 73.0903 31.404 72.7183 31.62C72.3583 31.824 72.0763 32.118 71.8723 32.502C71.6683 32.874 71.5663 33.318 71.5663 33.834V34.266C71.5663 34.794 71.6803 35.262 71.9083 35.67C72.1483 36.066 72.4783 36.372 72.8983 36.588C73.3303 36.792 73.8343 36.894 74.4103 36.894C74.9263 36.894 75.3763 36.816 75.7603 36.66C76.1563 36.504 76.5163 36.27 76.8403 35.958L78.3344 37.578C77.8904 38.082 77.3323 38.472 76.6603 38.748C75.9883 39.012 75.2143 39.144 74.3383 39.144Z" fill="#263238"/>
    <path d="M84.1458 39.144C83.3178 39.144 82.5198 39.048 81.7518 38.856C80.9958 38.652 80.3958 38.4 79.9518 38.1L80.8878 36.084C81.3318 36.36 81.8538 36.588 82.4538 36.768C83.0658 36.936 83.6658 37.02 84.2538 37.02C84.9018 37.02 85.3578 36.942 85.6218 36.786C85.8978 36.63 86.0358 36.414 86.0358 36.138C86.0358 35.91 85.9278 35.742 85.7118 35.634C85.5078 35.514 85.2318 35.424 84.8838 35.364C84.5358 35.304 84.1518 35.244 83.7318 35.184C83.3238 35.124 82.9098 35.046 82.4898 34.95C82.0698 34.842 81.6858 34.686 81.3378 34.482C80.9898 34.278 80.7078 34.002 80.4918 33.654C80.2878 33.306 80.1858 32.856 80.1858 32.304C80.1858 31.692 80.3598 31.152 80.7078 30.684C81.0678 30.216 81.5838 29.85 82.2558 29.586C82.9278 29.31 83.7318 29.172 84.6678 29.172C85.3278 29.172 85.9998 29.244 86.6838 29.388C87.3678 29.532 87.9378 29.742 88.3938 30.018L87.4578 32.016C86.9898 31.74 86.5158 31.554 86.0358 31.458C85.5678 31.35 85.1118 31.296 84.6678 31.296C84.0438 31.296 83.5878 31.38 83.2998 31.548C83.0118 31.716 82.8678 31.932 82.8678 32.196C82.8678 32.436 82.9698 32.616 83.1738 32.736C83.3898 32.856 83.6718 32.952 84.0198 33.024C84.3678 33.096 84.7458 33.162 85.1538 33.222C85.5738 33.27 85.9938 33.348 86.4138 33.456C86.8338 33.564 87.2118 33.72 87.5478 33.924C87.8958 34.116 88.1778 34.386 88.3938 34.734C88.6098 35.07 88.7178 35.514 88.7178 36.066C88.7178 36.666 88.5378 37.2 88.1778 37.668C87.8178 38.124 87.2958 38.484 86.6118 38.748C85.9398 39.012 85.1178 39.144 84.1458 39.144Z" fill="#263238"/>
    <path d="M96.1743 39.144C95.3583 39.144 94.6443 38.964 94.0323 38.604C93.4203 38.244 92.9403 37.698 92.5923 36.966C92.2563 36.222 92.0883 35.286 92.0883 34.158C92.0883 33.018 92.2503 32.082 92.5743 31.35C92.8983 30.618 93.3663 30.072 93.9783 29.712C94.5903 29.352 95.3223 29.172 96.1743 29.172C97.0863 29.172 97.9023 29.382 98.6223 29.802C99.3543 30.21 99.9303 30.786 100.35 31.53C100.782 32.274 100.998 33.15 100.998 34.158C100.998 35.178 100.782 36.06 100.35 36.804C99.9303 37.548 99.3543 38.124 98.6223 38.532C97.9023 38.94 97.0863 39.144 96.1743 39.144ZM90.4503 42.492V29.316H93.1323V31.296L93.0783 34.176L93.2583 37.038V42.492H90.4503ZM95.6883 36.84C96.1563 36.84 96.5703 36.732 96.9303 36.516C97.3023 36.3 97.5963 35.994 97.8123 35.598C98.0403 35.19 98.1543 34.71 98.1543 34.158C98.1543 33.594 98.0403 33.114 97.8123 32.718C97.5963 32.322 97.3023 32.016 96.9303 31.8C96.5703 31.584 96.1563 31.476 95.6883 31.476C95.2203 31.476 94.8003 31.584 94.4283 31.8C94.0563 32.016 93.7623 32.322 93.5463 32.718C93.3303 33.114 93.2223 33.594 93.2223 34.158C93.2223 34.71 93.3303 35.19 93.5463 35.598C93.7623 35.994 94.0563 36.3 94.4283 36.516C94.8003 36.732 95.2203 36.84 95.6883 36.84Z" fill="#263238"/>
    <path d="M107.684 39.144C106.58 39.144 105.608 38.928 104.768 38.496C103.94 38.064 103.298 37.476 102.842 36.732C102.386 35.976 102.158 35.118 102.158 34.158C102.158 33.186 102.38 32.328 102.824 31.584C103.28 30.828 103.898 30.24 104.678 29.82C105.458 29.388 106.34 29.172 107.324 29.172C108.272 29.172 109.124 29.376 109.88 29.784C110.648 30.18 111.254 30.756 111.698 31.512C112.142 32.256 112.364 33.15 112.364 34.194C112.364 34.302 112.358 34.428 112.346 34.572C112.334 34.704 112.322 34.83 112.31 34.95H104.444V33.312H110.834L109.754 33.798C109.754 33.294 109.652 32.856 109.448 32.484C109.244 32.112 108.962 31.824 108.602 31.62C108.242 31.404 107.822 31.296 107.342 31.296C106.862 31.296 106.436 31.404 106.064 31.62C105.704 31.824 105.422 32.118 105.218 32.502C105.014 32.874 104.912 33.318 104.912 33.834V34.266C104.912 34.794 105.026 35.262 105.254 35.67C105.494 36.066 105.824 36.372 106.244 36.588C106.676 36.792 107.18 36.894 107.756 36.894C108.272 36.894 108.722 36.816 109.106 36.66C109.502 36.504 109.862 36.27 110.186 35.958L111.68 37.578C111.236 38.082 110.678 38.472 110.006 38.748C109.334 39.012 108.56 39.144 107.684 39.144Z" fill="#263238"/>
    <path d="M118.914 39.144C117.87 39.144 116.94 38.934 116.124 38.514C115.308 38.082 114.666 37.488 114.198 36.732C113.742 35.976 113.514 35.118 113.514 34.158C113.514 33.186 113.742 32.328 114.198 31.584C114.666 30.828 115.308 30.24 116.124 29.82C116.94 29.388 117.87 29.172 118.914 29.172C119.934 29.172 120.822 29.388 121.578 29.82C122.334 30.24 122.892 30.846 123.252 31.638L121.074 32.808C120.822 32.352 120.504 32.016 120.12 31.8C119.748 31.584 119.34 31.476 118.896 31.476C118.416 31.476 117.984 31.584 117.6 31.8C117.216 32.016 116.91 32.322 116.682 32.718C116.466 33.114 116.358 33.594 116.358 34.158C116.358 34.722 116.466 35.202 116.682 35.598C116.91 35.994 117.216 36.3 117.6 36.516C117.984 36.732 118.416 36.84 118.896 36.84C119.34 36.84 119.748 36.738 120.12 36.534C120.504 36.318 120.822 35.976 121.074 35.508L123.252 36.696C122.892 37.476 122.334 38.082 121.578 38.514C120.822 38.934 119.934 39.144 118.914 39.144Z" fill="#263238"/>
    <path d="M128.969 39.144C127.829 39.144 126.941 38.856 126.305 38.28C125.669 37.692 125.351 36.822 125.351 35.67V27.174H128.159V35.634C128.159 36.042 128.267 36.36 128.483 36.588C128.699 36.804 128.993 36.912 129.365 36.912C129.809 36.912 130.187 36.792 130.499 36.552L131.255 38.532C130.967 38.736 130.619 38.892 130.211 39C129.815 39.096 129.401 39.144 128.969 39.144ZM123.857 31.692V29.532H130.571V31.692H123.857Z" fill="#263238"/>
    <path d="M20.4625 3L17.4408 11.0048C18.6495 10.9619 19.8582 10.9619 21.0237 10.9619C22.1892 10.9619 23.3979 10.9619 24.6066 11.0048L21.5849 3H20.4625Z" fill="#263238"/>
    <path d="M14.6768 31.8085V32.579C14.6768 33.8204 13.6407 34.8478 12.3889 34.8478H10.0579C9.49668 34.8478 9.02185 34.6337 8.59017 34.2913L6.82031 38.9572H35.1381L33.3682 34.2913C32.9797 34.6337 32.4617 34.8478 31.9005 34.8478H29.5695C28.3176 34.8478 27.2816 33.8204 27.2816 32.579V31.8085H14.6768Z" fill="#263238"/>
    <path d="M17.8701 3L13.6828 11.39C13.8555 11.3472 14.0713 11.3044 14.244 11.2616C14.8483 11.176 15.4527 11.1332 16.057 11.0904L19.1219 3H17.8701Z" fill="#263238"/>
    <path d="M6.51826 25.8585L0 39H5.56858L7.81328 33.0071C7.77011 32.8787 7.77011 32.7503 7.77011 32.5791V30.9096C7.07944 30.3103 6.51826 29.5398 6.51826 28.4697V25.8585Z" fill="#263238"/>
    <path d="M22.8356 3L25.9004 11.0904C26.5048 11.1332 27.1091 11.176 27.7135 11.2616C27.9293 11.3044 28.102 11.3472 28.2746 11.39L24.0874 3H22.8356Z" fill="#263238"/>
    <path d="M35.4806 25.8585V28.4697C35.4806 29.5398 34.9194 30.3103 34.2287 30.9096V32.5791C34.2287 32.7075 34.2287 32.8787 34.1855 33.0071L36.4303 39H41.9988L35.4806 25.8585Z" fill="#263238"/>
    <path fill-rule="evenodd" clip-rule="evenodd" d="M18.0855 25.9869H24.3016C24.6038 25.9869 24.8628 26.2437 24.8628 26.5434V27.8276C24.8628 28.1272 24.6038 28.384 24.3016 28.384H18.1287C17.8265 28.384 17.5675 28.1272 17.5675 27.8276V26.5434C17.5675 26.2437 17.7834 25.9869 18.0855 25.9869ZM30.6472 22.5624C31.8559 22.5624 32.2444 22.862 32.2876 23.2901C32.3739 23.8466 32.3739 24.9595 31.3379 25.1308C30.4745 25.2592 28.791 25.1736 27.8845 25.1308C27.0212 25.088 26.8916 24.5743 27.3233 23.8466C28.1435 22.6052 29.4385 22.5196 30.6472 22.5624ZM11.3083 22.5624C12.5169 22.5624 13.812 22.6052 14.6321 23.8894C15.0638 24.5743 14.9343 25.1308 14.071 25.1736C13.1645 25.2164 11.4378 25.302 10.6176 25.1736C9.58157 25.0024 9.58157 23.8894 9.6679 23.3329C9.71107 22.862 10.0996 22.5624 11.3083 22.5624ZM21.1936 13.7015C23.0498 13.7015 25.0786 13.7871 26.8053 13.8728C27.4528 13.9156 28.0572 14.258 28.4457 14.9001C28.9205 15.6706 29.3522 16.4411 29.6975 17.1688C30.1292 18.1106 29.4385 19.0095 28.4457 19.0095H14.0278C12.9918 19.0095 12.3011 18.1106 12.7759 17.1688C13.1213 16.3983 13.5098 15.6706 14.0278 14.9001C14.4163 14.258 15.0206 13.9156 15.6682 13.8728C17.3085 13.7871 19.3374 13.7015 21.1936 13.7015ZM20.9777 12.4173C18.8194 12.4173 16.5747 12.4173 14.4595 12.717C13.4666 12.8454 12.8191 13.4019 12.3874 14.0868L11.0061 16.3127H8.93405C8.28655 16.3127 7.89804 16.8264 8.07071 17.4257C8.24338 18.1106 8.45921 18.453 9.49523 18.667L8.58872 20.2509C8.24338 20.893 7.98438 21.5779 7.98438 22.1771V28.4268C7.98438 29.2402 8.54555 29.9679 9.23623 30.2247V32.5362C9.23623 33.0071 9.62473 33.3496 10.0564 33.3496H12.3874C12.8623 33.3496 13.2076 33.0071 13.2076 32.5362V30.3103H28.7478V32.5362C28.7478 33.0071 29.1363 33.3496 29.568 33.3496H31.8991C32.3739 33.3496 32.7192 33.0071 32.7192 32.5362V30.2247C33.4099 29.9679 33.9711 29.283 33.9711 28.4268V22.1771C33.9711 21.5779 33.7552 20.893 33.3667 20.2509L32.4602 18.667C33.4962 18.453 33.6689 18.1106 33.8847 17.4257C34.0574 16.7836 33.6689 16.3127 33.0214 16.3127H30.9494L29.568 14.0868C29.1363 13.4019 28.4888 12.8454 27.496 12.717C25.3808 12.4173 23.1793 12.4173 20.9777 12.4173Z" fill="#263238"/>
</svg>